# xmcd
#
# Track frame offsets:
#	150
#	8223
#	21193
#	38466
#	51097
#	67615
#	83715
#	100254
#	116754
#	126525
#	133083
#	146827
#
# Disc length: 2169 seconds
#
# Revision: 2
# Processed by: cddbd v1.5.2PL0 Copyright (c) Steve Scherf et al.
# Submitted via: audiograbber 1.83.01
#
DISCID=9f08770c
DTITLE=Bad Bob - Prairie Rose
DYEAR=2007
DGENRE=Country
TTITLE0=Sweet Georgia Brown
TTITLE1=Prairie Rose
TTITLE2=Out Where The West Wind Blows
TTITLE3=Robyn's Waltz
TTITLE4=Live Everyday
TTITLE5=The Angels Finally Came
TTITLE6=Over The Rainbow
TTITLE7=Don't Fence Me In
TTITLE8=Happy Rovin' Cowboy
TTITLE9=Red River Valley
TTITLE10=The Ballad Of Harry Choates
TTITLE11=Four Five Time
EXTD=
EXTT0=
EXTT1=
EXTT2=
EXTT3=
EXTT4=
EXTT5=
EXTT6=
EXTT7=
EXTT8=
EXTT9=
EXTT10=
EXTT11=
PLAYORDER=
